# Blender 3.6.2
# www.blender.org
mtllib broken_stone.mtl
o rock
v -0.588507 -0.340466 0.065642
v -0.652546 -0.410000 0.043057
v -0.630830 -0.410000 0.003649
v 0.924843 -0.158293 0.065642
v 1.025116 -0.209575 -0.218685
v 1.025116 -0.048050 -0.218685
v 0.959124 -0.350387 -0.380000
v 0.959124 0.215294 -0.380000
v 0.959124 -0.332351 -0.541989
v 0.959124 0.228407 -0.541989
v 0.959124 -0.350387 -0.514691
v 0.696707 -0.269001 -0.686597
v 0.696707 0.233639 -0.686597
v 0.701119 -0.269973 -0.684165
v 0.816113 0.255793 -0.620797
v 0.882600 -0.269973 -0.584158
v -0.490297 0.123400 -0.476043
v -0.532049 0.151904 -0.447539
v -0.208175 0.123400 -0.476043
v -0.392463 0.167713 -0.431731
v -0.395927 0.243114 -0.356330
v -0.244465 0.189256 -0.410188
v -0.190543 0.213064 -0.386380
v 0.399461 0.262409 -0.574431
v 0.517320 0.230451 -0.657175
v 0.140973 0.250517 -0.481534
v 0.045380 0.123400 -0.579770
v -0.083173 0.250517 -0.389838
v 0.554997 0.215294 -0.663354
v 0.045380 -0.238121 -0.579770
v 0.257236 -0.210695 -0.614517
v 0.392091 -0.264944 -0.636636
v 0.455338 -0.246637 -0.647009
v -0.208175 -0.266072 -0.476043
v -0.490297 0.090845 -0.476043
v -0.577401 -0.015345 -0.476043
v -0.590710 0.052590 -0.476043
v -0.590086 -0.014833 -0.476043
v -0.577401 -0.202665 -0.476043
v -0.450247 -0.240026 -0.476043
v -0.269302 -0.321644 -0.476043
v -0.602341 -0.013335 -0.476043
v -0.614424 -0.010799 -0.476043
v -0.625326 -0.007451 -0.476043
v -0.875918 -0.212929 -0.082728
v -0.865510 -0.041384 -0.075689
v -0.729567 -0.212929 -0.348308
v -0.685595 -0.041384 -0.402178
v -0.707127 -0.202665 -0.387477
v -0.811082 -0.240026 -0.260372
v -0.900000 -0.240026 -0.099014
v -0.805593 -0.231896 -0.252333
v -0.795019 -0.240026 -0.028018
v -0.796797 -0.240026 -0.239448
v -0.607164 -0.240026 -0.368914
v -0.562048 -0.360005 -0.218119
v -0.675642 -0.334218 -0.061989
v -0.730651 -0.322707 0.015512
v -0.630830 -0.410000 0.003649
v -0.652546 -0.410000 0.043057
v -0.388240 -0.360005 -0.336781
v -0.434506 -0.310180 -0.153367
v -0.426555 -0.266072 -0.079753
v -0.461729 -0.245112 0.251337
v -0.540003 -0.265243 0.136687
v -0.219903 -0.210695 0.251337
v -0.238405 -0.246637 -0.173379
v 0.296746 -0.246637 -0.538736
v 0.252094 -0.350387 -0.031990
v 0.043395 -0.350387 0.346732
v 0.068121 -0.269973 -0.028100
v -0.123826 -0.253185 0.251337
v 0.265926 -0.269973 -0.387052
v 0.730034 -0.350387 0.035726
v 0.181821 -0.350387 0.410000
v 0.154298 -0.350387 0.410000
v 0.753673 -0.206716 0.279604
v 0.586757 -0.333954 0.328527
v 0.718887 -0.301187 0.154159
v 0.794386 -0.048050 0.200016
v 0.796569 -0.053574 0.201184
v 0.786066 -0.073896 0.239113
v 0.822177 0.215294 -0.131485
v 0.803419 0.167713 -0.046661
v 0.769063 0.163694 0.019973
v 0.774744 -0.010120 0.195177
v 0.599468 0.255793 -0.227655
v 0.628259 0.235544 -0.029743
v 0.415054 0.246908 -0.006292
v 0.151435 0.215294 0.068982
v 0.375936 0.264801 -0.541557
v 0.121493 0.296293 -0.209046
v -0.000190 0.296293 0.011770
v -0.193012 0.296293 0.043395
v -0.159687 0.296293 -0.017079
v -0.543225 0.189256 0.131967
v -0.137355 0.250517 -0.291514
v -0.161562 0.264801 -0.174598
v -0.509293 0.211033 0.181669
v -0.510631 0.268713 -0.253222
v -0.534663 0.250517 -0.134947
v -0.619878 0.250517 0.019691
v -0.588507 0.225445 0.065642
v -0.722638 0.296293 0.018337
v -0.677154 0.296293 -0.064203
v -0.730651 0.279694 0.015512
v -0.688818 0.259732 -0.081288
v -0.559477 0.151904 -0.428813
v -0.615913 0.090845 -0.390284
v -0.643019 0.167713 -0.260672
v -0.636095 0.268713 -0.167566
v -0.634996 -0.010799 -0.461999
v -0.644499 -0.013307 -0.447377
v -0.661527 -0.015345 -0.418609
v -0.653404 -0.014833 -0.432815
v 0.759395 -0.083892 0.272452
v 0.753673 -0.090024 0.279604
v 0.435136 -0.130600 0.372967
v 0.435136 -0.310954 0.372967
v 0.209343 -0.130600 0.410000
v 0.209343 -0.342045 0.410000
v 0.386772 -0.301187 0.380899
v 0.154298 -0.121691 0.410000
v -0.123826 0.079895 0.251337
v -0.461729 0.134585 0.251337
v -0.588507 -0.246637 0.065642
v -0.652546 -0.410000 0.043057
v 0.730157 -0.053574 0.246524
v 0.693671 0.167713 0.028266
v -0.641532 -0.310180 -0.012027
v -0.630830 -0.410000 0.003649
v -0.664796 0.250517 -0.046103
vn 0.6307 -0.6938 0.3476
vn 0.9431 -0.0000 0.3326
vn 0.9255 -0.0000 -0.3786
vn 1.0000 -0.0000 -0.0000
vn 0.4826 -0.0000 -0.8758
vn -0.0000 0.7071 -0.7071
vn -0.2677 0.7071 -0.6545
vn -0.1619 -0.0000 -0.9868
vn -0.1618 -0.0000 -0.9868
vn -0.3786 -0.0000 -0.9255
vn -0.0000 -0.0000 -1.0000
vn -0.8735 0.0727 -0.4814
vn -0.5985 0.7301 -0.3298
vn -0.0000 -1.0000 -0.0000
vn -0.6394 -0.6833 -0.3524
vn 0.1405 -0.9871 0.0774
vn -0.3948 -0.8927 -0.2175
vn 0.7992 0.4089 0.4404
vn 0.7993 0.4090 0.4404
vn 0.7786 0.4579 0.4291
vn 0.1449 0.9862 0.0798
vn -0.1405 0.9871 -0.0774
vn 0.3948 0.8927 0.2175
vn -0.0000 1.0000 -0.0000
vn -0.3291 0.9267 -0.1814
vn -0.7818 0.4507 -0.4308
vn 0.7809 -0.0000 0.6247
vn 0.2813 -0.0000 0.9596
vn 0.1619 -0.0000 0.9868
vn -0.0000 -0.0000 1.0000
vn -0.4955 -0.0000 0.8686
vn -0.8259 -0.0000 0.5638
vn -0.3326 -0.0000 0.9431
vn -0.5602 -0.0000 0.8284
vn 0.1144 0.7071 0.6978
vn 0.3522 0.7809 0.5159
vn 0.0631 0.9937 0.0925
vn 0.5240 0.3693 0.7675
vn -0.3522 -0.7809 -0.5159
vn -0.1192 -0.9774 -0.1746
vn 0.8259 -0.0000 -0.5638
vn 0.3157 -0.8286 0.4624
vn 0.2082 -0.9293 0.3050
vn -0.2697 -0.8782 -0.3950
vn -0.1967 -0.9372 -0.2882
vn -0.1970 -0.9369 -0.2888
vn -0.1194 -0.9773 -0.1747
vn -0.1200 -0.9771 -0.1758
vn -0.0403 -0.9974 -0.0590
vn -0.5638 -0.0000 -0.8259
vn -0.2606 -0.8868 -0.3817
vn 0.2670 -0.8808 0.3910
vn -0.2404 -0.9045 -0.3522
vn 0.1192 0.9774 0.1746
vn -0.4403 0.6247 -0.6449
vn -0.0957 0.9855 -0.1402
vn -0.3157 0.8286 -0.4624
vn -0.1316 0.9724 -0.1928
vn -0.1317 0.9724 -0.1928
s 0
f 1//1 2//1 3//1
f 4//2 5//2 6//2
f 7//3 8//3 5//3
f 5//3 8//3 6//3
f 9//4 10//4 11//4
f 11//4 10//4 8//4
f 11//4 8//4 7//4
f 12//5 13//5 14//5
f 14//5 13//5 15//5
f 14//5 15//5 16//5
f 16//5 15//5 10//5
f 16//5 10//5 9//5
f 17//6 18//6 19//6
f 19//6 18//6 20//6
f 20//6 21//6 19//6
f 19//6 21//6 22//6
f 19//6 22//6 23//6
f 24//7 25//7 26//7
f 26//7 25//7 27//7
f 26//7 27//7 28//7
f 28//7 27//7 19//7
f 28//7 19//7 23//7
f 29//8 13//8 12//8
f 30//8 27//8 31//8
f 31//8 27//8 25//8
f 31//8 25//8 32//8
f 32//9 25//9 29//9
f 32//8 29//8 33//8
f 33//8 29//8 12//8
f 34//10 19//10 30//10
f 30//10 19//10 27//10
f 17//11 19//11 35//11
f 35//11 19//11 36//11
f 35//11 36//11 37//11
f 37//11 36//11 38//11
f 39//11 36//11 40//11
f 40//11 36//11 19//11
f 40//11 19//11 41//11
f 41//11 19//11 34//11
f 38//11 42//11 37//11
f 37//11 42//11 43//11
f 37//11 43//11 44//11
f 45//12 46//12 47//12
f 47//12 46//12 48//12
f 47//12 48//12 49//12
f 50//13 51//13 52//13
f 52//13 51//13 45//13
f 52//13 45//13 47//13
f 51//14 50//14 53//14
f 53//14 50//14 54//14
f 53//14 54//14 55//14
f 55//15 56//15 53//15
f 53//15 56//15 57//15
f 53//15 57//15 58//15
f 58//15 57//15 59//15
f 58//15 59//15 60//15
f 61//1 41//1 62//1
f 62//1 41//1 34//1
f 62//1 34//1 63//1
f 64//16 65//16 66//16
f 66//16 65//16 67//16
f 66//16 67//16 31//16
f 63//16 34//16 67//16
f 67//16 34//16 30//16
f 67//16 30//16 31//16
f 31//17 32//17 68//17
f 69//17 70//17 71//17
f 71//17 70//17 72//17
f 68//17 73//17 31//17
f 31//17 73//17 71//17
f 31//17 71//17 66//17
f 66//17 71//17 72//17
f 11//14 7//14 69//14
f 69//14 7//14 74//14
f 74//14 75//14 69//14
f 69//14 75//14 76//14
f 69//14 76//14 70//14
f 4//1 77//1 78//1
f 7//1 5//1 74//1
f 74//1 5//1 4//1
f 74//1 4//1 79//1
f 79//1 4//1 78//1
f 6//18 80//18 4//18
f 4//19 80//19 81//19
f 4//18 81//18 82//18
f 8//20 83//20 6//20
f 6//20 83//20 84//20
f 84//20 85//20 6//20
f 6//20 85//20 86//20
f 6//20 86//20 80//20
f 10//21 15//21 8//21
f 8//21 15//21 87//21
f 8//21 87//21 83//21
f 83//21 87//21 88//21
f 15//22 13//22 87//22
f 87//22 13//22 29//22
f 87//22 29//22 89//22
f 89//22 29//22 90//22
f 25//23 24//23 29//23
f 29//23 24//23 91//23
f 29//23 91//23 90//23
f 90//23 91//23 92//23
f 90//23 92//23 93//23
f 94//24 93//24 95//24
f 95//24 93//24 92//24
f 23//25 22//25 96//25
f 97//25 28//25 23//25
f 97//25 23//25 98//25
f 96//25 99//25 23//25
f 23//25 99//25 94//25
f 23//25 94//25 98//25
f 98//25 94//25 95//25
f 21//23 100//23 22//23
f 22//23 100//23 101//23
f 22//23 101//23 102//23
f 96//23 22//23 103//23
f 103//23 22//23 102//23
f 103//23 102//23 104//23
f 104//23 102//23 105//23
f 104//26 105//26 106//26
f 106//26 105//26 107//26
f 106//26 107//26 46//26
f 108//26 109//26 110//26
f 110//26 109//26 46//26
f 110//26 46//26 111//26
f 111//26 46//26 107//26
f 37//26 44//26 109//26
f 109//26 44//26 112//26
f 109//26 112//26 113//26
f 48//26 46//26 114//26
f 114//26 46//26 109//26
f 114//26 109//26 115//26
f 115//26 109//26 113//26
f 4//27 82//27 77//27
f 77//27 82//27 116//27
f 77//27 116//27 117//27
f 77//28 117//28 78//28
f 78//28 117//28 118//28
f 78//28 118//28 119//28
f 120//29 121//29 118//29
f 118//29 121//29 122//29
f 118//29 122//29 119//29
f 121//30 120//30 75//30
f 75//30 120//30 123//30
f 75//30 123//30 76//30
f 76//31 123//31 70//31
f 70//31 123//31 124//31
f 70//31 124//31 72//31
f 125//30 64//30 124//30
f 124//30 64//30 66//30
f 124//30 66//30 72//30
f 125//32 99//32 96//32
f 103//32 126//32 96//32
f 96//32 126//32 65//32
f 96//32 65//32 125//32
f 125//32 65//32 64//32
f 127//33 1//33 58//33
f 58//33 1//33 126//33
f 58//33 126//33 106//33
f 106//33 126//33 103//33
f 106//33 103//33 104//33
f 53//34 58//34 106//34
f 106//34 46//34 53//34
f 53//34 46//34 45//34
f 53//34 45//34 51//34
f 128//35 86//35 85//35
f 118//35 124//35 120//35
f 120//35 124//35 123//35
f 85//35 129//35 128//35
f 128//35 129//35 88//35
f 128//35 88//35 89//35
f 117//35 116//35 118//35
f 118//35 116//35 128//35
f 118//35 128//35 124//35
f 124//35 128//35 89//35
f 124//35 89//35 90//35
f 99//35 125//35 94//35
f 94//35 125//35 124//35
f 94//35 124//35 93//35
f 93//35 124//35 90//35
f 88//36 129//36 83//36
f 83//36 129//36 84//36
f 84//37 129//37 85//37
f 87//37 89//37 88//37
f 128//36 116//36 81//36
f 81//36 116//36 82//36
f 86//38 128//38 80//38
f 80//38 128//38 81//38
f 56//39 55//39 61//39
f 61//39 55//39 40//39
f 61//39 40//39 41//39
f 65//40 126//40 67//40
f 126//41 1//41 130//41
f 130//41 1//41 131//41
f 130//41 131//41 57//41
f 130//42 62//42 126//42
f 126//42 62//42 63//42
f 126//42 63//42 67//42
f 61//43 62//43 56//43
f 56//43 62//43 130//43
f 56//43 130//43 57//43
f 44//44 43//44 112//44
f 112//45 43//45 42//45
f 112//46 42//46 113//46
f 113//47 42//47 38//47
f 113//48 38//48 115//48
f 115//49 38//49 36//49
f 115//49 36//49 114//49
f 114//50 36//50 48//50
f 48//50 36//50 39//50
f 48//50 39//50 49//50
f 54//51 52//51 55//51
f 55//51 52//51 47//51
f 47//51 49//51 55//51
f 55//51 49//51 39//51
f 55//51 39//51 40//51
f 52//41 54//41 50//41
f 79//52 122//52 74//52
f 74//52 122//52 121//52
f 74//52 121//52 75//52
f 122//53 79//53 119//53
f 119//53 79//53 78//53
f 107//54 132//54 111//54
f 111//54 132//54 101//54
f 111//54 101//54 100//54
f 21//55 20//55 100//55
f 100//55 20//55 110//55
f 100//55 110//55 111//55
f 108//56 110//56 18//56
f 18//56 110//56 20//56
f 17//50 35//50 18//50
f 18//50 35//50 109//50
f 18//50 109//50 108//50
f 37//57 109//57 35//57
f 107//41 105//41 132//41
f 132//41 105//41 102//41
f 101//24 132//24 102//24
f 98//58 95//58 91//58
f 91//59 95//59 92//59
f 91//56 24//56 98//56
f 98//56 24//56 26//56
f 98//56 26//56 97//56
f 28//24 97//24 26//24
f 9//39 11//39 16//39
f 16//39 11//39 69//39
f 16//39 69//39 71//39
f 71//14 73//14 16//14
f 16//14 73//14 14//14
f 12//40 14//40 33//40
f 33//40 14//40 73//40
f 33//40 73//40 68//40
f 33//42 68//42 32//42
